<?xml version="1.0" ?><svg height="64" id="svg2" version="1.1" viewBox="0 0 64.000001 64.000001" width="64" xmlns="http://www.w3.org/2000/svg" xmlns:cc="http://creativecommons.org/ns#" xmlns:dc="http://purl.org/dc/elements/1.1/" xmlns:inkscape="http://www.inkscape.org/namespaces/inkscape" xmlns:rdf="http://www.w3.org/1999/02/22-rdf-syntax-ns#" xmlns:sodipodi="http://sodipodi.sourceforge.net/DTD/sodipodi-0.dtd" xmlns:svg="http://www.w3.org/2000/svg" xmlns:xlink="http://www.w3.org/1999/xlink"><defs id="defs4"><linearGradient id="linearGradient3863"><stop id="stop3865" offset="0" style="stop-color:#0c4747;stop-opacity:1;"/><stop id="stop3867" offset="1" style="stop-color:#0c4747;stop-opacity:0.69130433"/></linearGradient><linearGradient gradientTransform="translate(0,-988.36218)" gradientUnits="userSpaceOnUse" id="linearGradient3869" x1="34.079666" x2="44.758911" xlink:href="#linearGradient3863" y1="1021.584" y2="1032.7202"/></defs><g id="layer1" transform="translate(0,-988.36218)"><circle cx="32.5" cy="1019.8622" id="path3855" r="27.5" style="opacity:1;fill:#008080;fill-opacity:1;stroke:none;stroke-width:2;stroke-linecap:butt;stroke-linejoin:miter;stroke-miterlimit:4;stroke-dasharray:none;stroke-dashoffset:0;stroke-opacity:1"/><path d="m 50.046875,1011.7372 0,19.6601 -34.919922,0 15.890625,15.8907 a 27.5,27.5 0 0 0 1.482422,0.074 27.5,27.5 0 0 0 27.412109,-25.7246 l -9.865234,-9.9004 z" id="path3897" style="opacity:1;fill:url(#linearGradient3869);fill-opacity:1;stroke:none;stroke-width:2;stroke-linecap:butt;stroke-linejoin:miter;stroke-miterlimit:4;stroke-dasharray:none;stroke-dashoffset:0;stroke-opacity:1"/><g id="layer1-7" style="fill:#ffffff" transform="matrix(0.6143661,0,0,0.6143661,12.569789,394.12142)"><path d="m 4,1000.2886 0,1 0,4 0,1 0,1 0,30 57,0 0,-32 -6.177734,0 c 0.262151,0.6456 0.473443,1.3158 0.65039,2 l 3.527344,0 0,28 -53,0 0,-28 0,-2 0,-3 13,0 0,3 0,2 2,0 3.527344,0 c 0.176947,-0.6842 0.388239,-1.3544 0.65039,-2 l -4.177734,0 0,-5 -17,0 z" id="path4111" style="color:#000000;font-style:normal;font-variant:normal;font-weight:normal;font-stretch:normal;font-size:medium;line-height:normal;font-family:sans-serif;text-indent:0;text-align:start;text-decoration:none;text-decoration-line:none;text-decoration-style:solid;text-decoration-color:#000000;letter-spacing:normal;word-spacing:normal;text-transform:none;direction:ltr;block-progression:tb;writing-mode:lr-tb;baseline-shift:baseline;text-anchor:start;white-space:normal;clip-rule:nonzero;display:inline;overflow:visible;visibility:visible;opacity:1;isolation:auto;mix-blend-mode:normal;color-interpolation:sRGB;color-interpolation-filters:linearRGB;solid-color:#000000;solid-opacity:1;fill:#ffffff;fill-opacity:1;fill-rule:nonzero;stroke:none;stroke-width:2;stroke-linecap:round;stroke-linejoin:miter;stroke-miterlimit:4;stroke-dasharray:none;stroke-dashoffset:0;stroke-opacity:1;color-rendering:auto;image-rendering:auto;shape-rendering:auto;text-rendering:auto;enable-background:accumulate"/><path d="m 40,998.93644 c -6.810088,0 -12.351563,5.54116 -12.351562,12.35126 0,6.8101 5.541474,12.3535 12.351562,12.3535 6.810088,0 12.351562,-5.5434 12.351562,-12.3535 0,-6.8101 -5.541474,-12.35126 -12.351562,-12.35126 z m 0,1.99976 c 5.729208,0 10.351562,4.6223 10.351562,10.3515 0,5.7292 -4.622354,10.3535 -10.351562,10.3535 -5.729208,0 -10.351562,-4.6243 -10.351562,-10.3535 0,-5.7292 4.622354,-10.3515 10.351562,-10.3515 z" id="circle4096" style="color:#000000;font-style:normal;font-variant:normal;font-weight:normal;font-stretch:normal;font-size:medium;line-height:normal;font-family:sans-serif;text-indent:0;text-align:start;text-decoration:none;text-decoration-line:none;text-decoration-style:solid;text-decoration-color:#000000;letter-spacing:normal;word-spacing:normal;text-transform:none;direction:ltr;block-progression:tb;writing-mode:lr-tb;baseline-shift:baseline;text-anchor:start;white-space:normal;clip-rule:nonzero;display:inline;overflow:visible;visibility:visible;opacity:1;isolation:auto;mix-blend-mode:normal;color-interpolation:sRGB;color-interpolation-filters:linearRGB;solid-color:#000000;solid-opacity:1;fill:#ffffff;fill-opacity:1;fill-rule:nonzero;stroke:none;stroke-width:2;stroke-linecap:round;stroke-linejoin:miter;stroke-miterlimit:4;stroke-dasharray:none;stroke-dashoffset:0;stroke-opacity:1;color-rendering:auto;image-rendering:auto;shape-rendering:auto;text-rendering:auto;enable-background:accumulate"/><path d="m 40,14.244141 c -1.929432,0 -3.708402,0.642028 -5.152344,1.71289 L 36.265625,17.375 C 37.330414,16.659106 38.614865,16.244141 40,16.244141 c 3.703006,0 6.683594,2.980593 6.683594,6.683593 0,1.384544 -0.417479,2.667899 -1.132813,3.732422 l 1.419922,1.419922 c 1.070888,-1.443957 1.712891,-3.222922 1.712891,-5.152344 0,-4.7839 -3.899708,-8.683593 -8.683594,-8.683593 z" id="path4807" style="color:#000000;font-style:normal;font-variant:normal;font-weight:normal;font-stretch:normal;font-size:medium;line-height:normal;font-family:sans-serif;text-indent:0;text-align:start;text-decoration:none;text-decoration-line:none;text-decoration-style:solid;text-decoration-color:#000000;letter-spacing:normal;word-spacing:normal;text-transform:none;direction:ltr;block-progression:tb;writing-mode:lr-tb;baseline-shift:baseline;text-anchor:start;white-space:normal;clip-rule:nonzero;display:inline;overflow:visible;visibility:visible;opacity:1;isolation:auto;mix-blend-mode:normal;color-interpolation:sRGB;color-interpolation-filters:linearRGB;solid-color:#000000;solid-opacity:1;fill:#ffffff;fill-opacity:1;fill-rule:nonzero;stroke:none;stroke-width:2;stroke-linecap:round;stroke-linejoin:miter;stroke-miterlimit:4;stroke-dasharray:none;stroke-dashoffset:0;stroke-opacity:1;color-rendering:auto;image-rendering:auto;shape-rendering:auto;text-rendering:auto;enable-background:accumulate" transform="translate(0,988.36218)"/></g></g></svg>