<?xml version="1.0" encoding="utf-8"?>
<!-- Generator: Adobe Illustrator 16.0.0, SVG Export Plug-In . SVG Version: 6.00 Build 0)  -->
<!DOCTYPE svg PUBLIC "-//W3C//DTD SVG 1.1//EN" "http://www.w3.org/Graphics/SVG/1.1/DTD/svg11.dtd">
<svg version="1.1" id="logo" xmlns="http://www.w3.org/2000/svg" xmlns:xlink="http://www.w3.org/1999/xlink" x="0px" y="0px"
	 width="988.3906px" height="388.8716px" viewBox="0 0 988.3906 388.8716" enable-background="new 0 0 988.3906 388.8716"
	 xml:space="preserve">
<path fill="#C08C00" d="M0,3.481h102.8311v17.8809H23.5942v162.6973H0V3.481z M94.3862,80.73v17.3838H33.0342
	c1.8208-4.7979,4.3472-8.896,7.5781-12.2949c3.228-3.3887,7.8208-5.0889,13.7827-5.0889H94.3862z"/>
<path fill="#C08C00" d="M186.8359,3.481l65.0781,180.5781h-25.3369L176.1528,38.501l-1.7358-7.1992l-1.7383,7.1992l-27.8179,79.7339
	l-2.7329,5.2148l2.979-0.4966h33.5327c5.9604,0,10.5132,1.7827,13.6602,5.3369c3.146,3.5679,5.6289,7.7461,7.4521,12.5469h-62.5908
	l-14.9062,43.2222H98.6611L163.7378,3.481H186.8359z"/>
<path fill="#C08C00" d="M326.6216,18.3794c-4.6382,0-8.7388,0.7109-12.293,2.1133c-3.564,1.4087-6.585,3.3506-9.0688,5.8389
	c-2.4834,2.4858-4.3462,5.3418-5.5913,8.5688c-1.2388,3.2251-1.8589,6.6641-1.8589,10.3052c0,6.459,2.0669,11.9688,6.2061,16.522
	c4.1421,4.5547,9.356,8.7368,15.6528,12.5439c6.2871,3.8091,13.0391,7.5728,20.2402,11.2979
	c7.2061,3.7261,13.9487,7.9922,20.2461,12.7959c6.2886,4.8022,11.5059,10.4312,15.6479,16.8872
	c4.1338,6.459,6.209,14.4082,6.209,23.8428c0,6.1274-1.2842,12.0952-3.8511,17.8853c-2.5698,5.7998-6.377,10.9312-11.4253,15.3999
	c-5.0527,4.4731-11.2197,8.0361-18.5068,10.6831c-7.2861,2.646-15.645,3.9741-25.0859,3.9741c-3.4741,0-7.3672-0.21-11.6738-0.6201
	c-4.3052-0.417-8.6924-1.041-13.1631-1.8682c-4.4712-0.8228-9.0269-1.9868-13.6631-3.4741
	c-4.6382-1.4888-9.0239-3.231-13.1621-5.2178l6.4561-16.1431c7.4512,3.3149,14.9429,5.7129,22.48,7.2021
	c7.5342,1.4888,14.1963,2.2358,19.9951,2.2358c11.7549,0,20.8638-2.9287,27.3228-8.7998c6.4604-5.8682,9.6851-13.105,9.6851-21.7021
	c0-7.1118-2.0708-13.0239-6.2119-17.7339c-4.1367-4.7109-9.272-8.9731-15.3979-12.7749c-6.126-3.8071-12.833-7.4844-20.1138-11.04
	c-7.2935-3.5542-14-7.603-20.1211-12.1523c-6.1323-4.5459-11.2632-9.9565-15.3999-16.2368
	c-4.1431-6.2881-6.2134-14.062-6.2134-23.3208c0-6.1191,1.2021-11.9072,3.6021-17.3604c2.3989-5.457,5.8369-10.252,10.311-14.3867
	c4.4692-4.1323,9.7681-7.3569,15.894-9.6733c6.123-2.314,12.9189-3.4697,20.3672-3.4697c7.1211,0,14.2847,0.5669,21.4858,1.71
	c7.2041,1.1499,15.0269,3.0278,23.4741,5.6401l-6.709,15.9917c-7.1191-2.145-13.7031-3.5957-19.7461-4.3428
	C336.5967,18.7544,331.2568,18.3794,326.6216,18.3794"/>
<path fill="#C08C00" d="M416.5322,3.481h23.5977v180.5781h-23.5977V3.481z M530.542,80.73V3.481h23.5938v180.5781H530.542V98.1138
	h-80.9731c1.8213-4.7979,4.3481-8.896,7.5732-12.2949c3.229-3.3887,7.7417-5.0889,13.54-5.0889H530.542z"/>
<rect x="597.8555" y="3.481" fill="#C08C00" width="22.8477" height="180.5781"/>
<path fill="#C08C00" d="M653.9863,93.7681c0-15.873,2.5234-29.6831,7.5762-41.4238c5.0479-11.7441,11.6338-21.498,19.7461-29.271
	c8.1113-7.771,17.0957-13.561,26.9512-17.3672C718.1104,1.9038,727.9229,0,737.6934,0c13.415,0,25.335,2.4893,35.7666,7.4482
	c10.4355,4.959,19.2061,11.6948,26.3271,20.2119c7.1201,8.5161,12.501,18.4839,16.1475,29.8921
	c3.6396,11.4116,5.4658,23.4868,5.4658,36.2158c0,14.3911-2.2363,27.3301-6.708,38.8262
	c-4.4707,11.4917-10.5596,21.3257-18.2568,29.5176c-7.7002,8.1792-16.6006,14.4644-26.7031,18.8481
	c-10.0996,4.3809-20.7822,6.5723-32.0391,6.5723c-11.5918,0-22.4805-2.1489-32.6631-6.4492
	c-10.1807-4.2998-19.0449-10.4551-26.5771-18.4771c-7.5371-8.02-13.4951-17.8149-17.8848-29.396
	C656.1758,121.6343,653.9863,108.481,653.9863,93.7681 M679.3203,93.645c0,11.2578,1.4492,21.5259,4.3477,30.7969
	c2.8975,9.2773,6.9541,17.2651,12.1738,23.9731c5.2129,6.7051,11.3809,11.9219,18.5,15.645
	c7.1221,3.7261,14.9062,5.5898,23.3516,5.5898c8.7764,0,16.7666-1.9868,23.9678-5.9609c7.2051-3.9751,13.3281-9.3511,18.3789-16.144
	c5.0547-6.7891,8.9834-14.8208,11.8018-24.0947c2.8115-9.2739,4.2227-19.2061,4.2227-29.8052
	c0-11.5869-1.5361-22.062-4.5977-31.4238c-3.0645-9.3501-7.2451-17.3462-12.5391-23.9702
	c-5.3047-6.6201-11.5127-11.6738-18.6338-15.1509c-7.1201-3.4731-14.6514-5.2119-22.6006-5.2119
	c-7.9512,0-15.4844,1.7388-22.6064,5.2119c-7.1182,3.4771-13.3301,8.5308-18.6279,15.1509
	c-5.3008,6.624-9.4805,14.6201-12.5439,23.9702C680.8496,71.583,679.3203,82.0581,679.3203,93.645"/>
<polygon fill="#C08C00" points="876.8652,39.7446 873.3848,31.3027 873.8848,39.7446 873.8848,184.0586 853.7637,184.0586 
	853.7637,3.4805 877.3584,3.4805 965.041,143.5708 968.0244,151.7656 967.5244,143.0698 967.5244,3.4805 988.3906,3.4805 
	988.3906,184.0586 967.2773,184.0586 "/>
<path fill="#C08C00" d="M0.0005,228.3335h89.9331v15.6396H20.6362v142.292H0.0005V228.3335z M82.5474,295.897v15.2041H28.8926
	c1.5918-4.1992,3.7998-7.7852,6.626-10.7539c2.8228-2.9639,6.8408-4.4502,12.0557-4.4502H82.5474z"/>
<rect x="114.5493" y="228.3345" fill="#C08C00" width="19.9878" height="157.9307"/>
<path fill="#C08C00" d="M166.5894,228.3335h89.9331v15.6396h-69.2993v126.6494h72.5552v15.6426h-93.189V228.3335z M249.1343,295.897
	v15.2041h-53.6592c1.5952-4.1992,3.8032-7.7852,6.6304-10.7539c2.8208-2.9639,6.8369-4.4502,12.0557-4.4502H249.1343z"/>
<path fill="#C08C00" d="M330.3301,241.3696c-4.0571,0-7.6431,0.6191-10.7539,1.8457c-3.1152,1.2334-5.7559,2.9336-7.9282,5.1104
	c-2.1729,2.1699-3.8027,4.665-4.8877,7.4902s-1.6284,5.832-1.6284,9.0098c0,5.6533,1.8091,10.4688,5.4292,14.4502
	c3.6211,3.9863,8.1802,7.6455,13.686,10.9717c5.5029,3.332,11.4053,6.627,17.7031,9.8828
	c6.3018,3.2627,12.2021,6.9893,17.708,11.1875c5.501,4.2021,10.061,9.126,13.6831,14.7725
	c3.6177,5.6465,5.4287,12.5996,5.4287,20.8545c0,5.3584-1.1221,10.5732-3.3628,15.6406c-2.25,5.0713-5.5781,9.5576-9.9961,13.4658
	c-4.416,3.9111-9.8101,7.0273-16.1821,9.3438c-6.373,2.3135-13.688,3.4766-21.938,3.4766c-3.0439,0-6.4512-0.1855-10.2129-0.543
	c-3.769-0.3613-7.603-0.9111-11.5132-1.6299c-3.9077-0.7256-7.8931-1.7383-11.9458-3.042
	c-4.0571-1.3037-7.895-2.8242-11.5171-4.5596l5.6499-14.124c6.519,2.9014,13.0659,4.998,19.6621,6.3018
	c6.5889,1.3027,12.4141,1.958,17.4829,1.958c10.2822,0,18.25-2.5723,23.9009-7.6992c5.6431-5.1348,8.4712-11.4609,8.4712-18.9824
	c0-6.2139-1.813-11.3867-5.436-15.5088c-3.6182-4.1182-8.1069-7.8477-13.4678-11.1729c-5.354-3.3262-11.2231-6.54-17.5933-9.6523
	c-6.375-3.1084-12.2378-6.6494-17.5957-10.6299c-5.3604-3.9746-9.8462-8.71-13.4702-14.2021
	c-3.6211-5.499-5.4287-12.2979-5.4287-20.3975c0-5.3447,1.0479-10.4121,3.1489-15.1797c2.0967-4.7705,5.106-8.9648,9.0156-12.582
	c3.9111-3.6201,8.5435-6.4346,13.9053-8.457c5.354-2.0264,11.293-3.042,17.812-3.042c6.2207,0,12.4888,0.5049,18.7891,1.5039
	c6.2969,1.002,13.1431,2.6426,20.5308,4.9268l-5.8667,13.9912c-6.2305-1.8809-11.9873-3.1504-17.2725-3.8018
	C339.0532,241.6948,334.3799,241.3696,330.3301,241.3696"/>
<polygon fill="#C08C00" points="388.4995,243.9731 388.4995,228.3345 501.6689,228.3345 501.6689,243.9731 455.4033,243.9731 
	455.4033,386.2651 434.5454,386.2651 434.5454,243.9731 "/>
<path fill="#C08C00" d="M566.0645,228.3345l56.915,157.9307h-22.1611l-44.0918-127.2988l-1.5264-6.3008l-1.5195,6.3008
	l-24.3271,69.7314l-2.3906,4.5596l2.6035-0.4307h29.3271c5.2139,0,9.1963,1.5596,11.9502,4.668
	c2.7471,3.1201,4.9189,6.7715,6.5156,10.9697h-54.7422l-13.0342,37.8008h-20.6353l56.9116-157.9307H566.0645z"/>
<path fill="#C08C00" d="M738.3643,388.6226c-6.4844,0-12.5029-1.0967-18.0615-3.2871c-5.5596-2.1836-10.4023-5.3174-14.5244-9.4004
	c-4.1279-4.0752-7.3486-9.0137-9.668-14.8174c-2.3154-5.8037-3.4697-12.3652-3.4697-19.6758c0-7.0654,1.1543-13.5225,3.4697-19.3682
	c2.3193-5.8418,5.54-10.8721,9.668-15.0771c4.1221-4.2061,8.9648-7.4658,14.5244-9.7744
	c5.5586-2.3105,11.5771-3.4746,18.0615-3.4746c3.54,0,7.1797,0.3574,10.9297,1.0615c3.748,0.709,7.5586,1.7666,11.4346,3.1758
	l-3.2891,8.1484c-3.7031-1.1836-7.0732-2.0244-10.1025-2.5332c-3.0322-0.5049-6.0244-0.7568-8.9727-0.7568
	c-4.377,0-8.5449,0.8057-12.5029,2.4043c-3.959,1.5986-7.4531,3.999-10.4854,7.1982c-3.0322,3.2041-5.4316,7.2246-7.1992,12.0596
	c-1.7656,4.8467-2.6523,10.4697-2.6523,16.8721c0,5.7285,0.8867,10.9258,2.6523,15.5938c1.7676,4.6797,4.167,8.6992,7.1992,12.0713
	c3.0322,3.3672,6.5264,5.9541,10.4854,7.7617c3.958,1.8135,8.126,2.7207,12.5029,2.7207c2.9482,0,5.9785-0.3828,9.0986-1.1396
	c3.1152-0.7568,6.4434-2.0215,9.9766-3.792l3.2891,8.2119c-3.9648,2.1064-7.793,3.6035-11.499,4.4863
	C745.5254,388.1753,741.9043,388.6226,738.3643,388.6226"/>
<polygon fill="#C08C00" points="777.1475,295.2622 789.2754,295.2622 789.2754,378.0034 827.6738,378.0034 827.5488,387.1021 
	777.1475,387.1021 "/>
<path fill="#C08C00" d="M873.501,388.8716c-5.3916,0-10.1904-0.8682-14.4033-2.5898c-4.2109-1.7217-7.7666-4.1494-10.6738-7.2646
	c-2.9053-3.1162-5.1133-6.8594-6.6279-11.2441c-1.5166-4.377-2.2744-9.2207-2.2744-14.5273v-57.9834h11.8672v60.0049
	c0,7.4971,2.0029,13.4561,6.0059,17.875c3.9971,4.4199,9.3682,6.6357,16.1064,6.6357c6.7363,0,12.1055-2.2158,16.1045-6.6357
	c4-4.4189,6.002-10.3779,6.002-17.875v-60.0049h11.873v57.9834c0,5.3066-0.8242,10.1504-2.4629,14.5273
	c-1.6436,4.3848-3.96,8.1279-6.9492,11.2441c-2.9902,3.1152-6.5684,5.543-10.7393,7.2646
	C883.165,388.0034,878.5527,388.8716,873.501,388.8716"/>
<path fill="#C08C00" d="M953.5283,379.1421c1.0068,0.1719,1.9131,0.2773,2.7139,0.3193c0.8008,0.0391,1.7881,0.0635,2.9688,0.0635
	c2.1904,0,4.2744-0.4668,6.252-1.3955c1.9814-0.9248,3.7285-2.1934,5.2451-3.8066c1.5146-1.6016,2.7148-3.4834,3.5996-5.6387
	c0.8838-2.1553,1.3252-4.457,1.3252-6.9082c0-3.126-0.6514-5.8525-1.9561-8.1797c-1.3086-2.3203-3.0547-4.2383-5.2432-5.7656
	c-2.1904-1.5215-4.7998-2.6387-7.833-3.3574c-3.0322-0.7217-6.2344-1.0762-9.5996-1.0762h-14.5273v43.7051h-12.0029v-90.6973
	c4.8008-0.9248,9.2842-1.6191,13.4531-2.085c4.1748-0.4629,8.5283-0.6943,13.0771-0.6943c5.3896,0,10.083,0.6309,14.0811,1.8926
	c4.002,1.2617,7.3281,2.9932,9.9834,5.1797c2.6504,2.1943,4.6309,4.7842,5.9395,7.7705c1.3018,2.9893,1.9561,6.1719,1.9561,9.5371
	c0,1.5127-0.2148,3.1328-0.6299,4.8604c-0.4248,1.7275-1.0361,3.4355-1.832,5.1172c-0.8027,1.6855-1.793,3.2422-2.9707,4.6748
	c-1.1777,1.4346-2.5273,2.6494-4.041,3.665l-3.6631,1.7676l3.5361,0.8838c4.7998,2.2705,8.502,5.2852,11.1143,9.0283
	c2.6113,3.7539,3.915,8.1484,3.915,13.2031c0,3.2832-0.6523,6.5459-1.9541,9.792c-1.3096,3.2412-3.2236,6.168-5.748,8.7803
	c-2.5273,2.6104-5.6035,4.7344-9.2227,6.375c-3.624,1.6426-7.7051,2.4697-12.2539,2.4697c-2.4414,0-5.0557-0.1533-7.8281-0.4473
	c-2.7832-0.2988-6.0664-0.9023-9.8574-1.8301c1.2617-2.1514,2.8623-4.0127,4.8018-5.5977
	C948.2598,379.1704,950.6611,378.6343,953.5283,379.1421 M951.001,334.6772c3.1143,0,5.8955-0.4209,8.3398-1.2617
	c2.4375-0.8379,4.4824-2.0186,6.1221-3.54c1.6406-1.5137,2.8828-3.2842,3.7285-5.2988c0.8408-2.0264,1.2617-4.2129,1.2617-6.5713
	c0-4.291-1.6387-7.876-4.9229-10.7393c-3.2871-2.8604-8.1289-4.2969-14.5293-4.2969c-2.2754,0-4.6934,0.0635-7.2656,0.1963
	c-2.5674,0.127-4.9873,0.3115-7.2617,0.5605v30.9512H951.001z"/>
<path fill="#C08C00" d="M639.2275,369.1997c0-11.5586,7.8018-19.6826,18.7422-19.6826c10.9307,0,18.4248,8.124,18.4248,19.6826
	c0,11.2402-7.1875,19.6719-18.748,19.6719C646.7295,388.8716,639.2275,380.4399,639.2275,369.1997"/>
</svg>
