<svg xmlns="http://www.w3.org/2000/svg" xmlns:xlink="http://www.w3.org/1999/xlink" version="1.1" id="LOGO" x="0" y="0" preserveAspectRatio="xMidYMid meet" viewBox="-48 32 196 32.97" enable-background="new -48 32 196 32.971" xml:space="preserve">
  <title>
    TFS Logo
  </title>
  <g id="TFS">
    <g id="SPOT">
      <path d="M103.01 48.51c-0.84-1.34-2.04-2.22-3.81-2.22 -1.95 0-3.53 1.57-3.54 3.52 0 0.02 0 0.04 0 0.06 0 1.97 1.87 2.8 3.39 3.51l3.59 1.87c1.42 0.9 2.14 2.04 2.14 3.73 0 3.12-2.84 5.45-5.87 5.45 -2.61 0-4.66-1.62-5.53-4.03l1.05-0.47c0.8 1.99 2.27 3.38 4.54 3.38 2.47 0 4.63-1.94 4.63-4.43 0-2.12-2.17-3.01-3.78-3.81l-3.39-1.79c-1.22-0.67-1.96-1.97-1.94-3.36 0-2.79 1.99-4.75 4.8-4.75 1.89-0.01 3.64 1 4.58 2.64L103.01 48.51z"/>
      <path d="M108.07 64.19h-1.19V45.43h3.31c1.47 0 2.89 0.1 4.06 1.1 1.11 0.97 1.73 2.38 1.69 3.86 0 1.34-0.52 2.84-1.57 3.71 -1.14 0.99-2.71 1.19-4.19 1.19h-2.12v8.91H108.07zM110.23 54.16c1.22 0 2.31-0.15 3.29-1.02 0.8-0.72 1.24-1.74 1.22-2.81 0.03-1.18-0.49-2.31-1.42-3.03 -0.94-0.72-2.14-0.75-3.28-0.75h-1.97v7.62h2.17V54.16z"/>
      <path d="M136.75 54.81c0 5.28-4.45 9.64-9.73 9.64 -5.28 0-9.73-4.36-9.73-9.64 0-5.28 4.43-9.63 9.73-9.63C132.32 45.18 136.75 49.53 136.75 54.81zM118.49 54.81c-0.02 4.72 3.8 8.55 8.51 8.56 4.72 0.01 8.55-3.8 8.56-8.51 0.01-4.71-3.8-8.55-8.51-8.56 -0.01 0-0.02 0-0.02 0 -4.7 0.03-8.5 3.82-8.54 8.51H118.49z"/>
      <path d="M142.82 64.19h-1.18V46.55h-4.87v-1.12h10.9v1.12h-4.85V64.19L142.82 64.19z"/>
    </g>
    <g id="FASHION">
      <path d="M-7.61 47.57v5.28h6.52v2.14H-7.61v9.21h-2.34V45.43h9.07v2.14H-7.61V47.57z"/>
      <path d="M2.37 59.49L0.24 64.19h-2.51l8.96-19.55 8.96 19.55h-2.51l-2.14-4.71H2.37V59.49zM6.67 49.76l-3.33 7.59h6.67L6.67 49.76z"/>
      <path d="M24.84 48.99c-0.7-1.17-1.59-1.77-3.01-1.77 -1.49 0-3.14 1.02-3.14 2.66 0 1.47 1.45 2.24 2.61 2.69l1.34 0.52c2.66 1.05 4.65 2.52 4.65 5.65 0 3.41-2.64 5.85-6 5.85 -3.04 0-5.4-2.24-5.8-5.23l2.36-0.5c-0.02 1.94 1.53 3.54 3.47 3.56 0.05 0 0.11 0 0.16 0 2.02 0 3.46-1.69 3.46-3.66 0-1.97-1.62-2.89-3.24-3.56l-1.29-0.55c-2.14-0.92-4.08-2.14-4.08-4.75 0-3.04 2.69-4.86 5.53-4.86 2.02-0.04 3.88 1.06 4.83 2.84L24.84 48.99z"/>
      <path d="M40.78 52.99v-7.57h2.34v18.77h-2.34v-9.01h-8.94v9.01h-2.34V45.43h2.34v7.57H40.78z"/>
      <path d="M48.07 64.19H45.73V45.43h2.34V64.19z"/>
      <path d="M70.05 54.81c0 5.43-4.4 9.83-9.84 9.83 -5.43 0-9.83-4.4-9.83-9.83 0-5.43 4.41-9.83 9.84-9.83C65.64 44.98 70.05 49.38 70.05 54.81zM67.71 54.81c0-4.13-3.09-7.59-7.49-7.59 -4.4 0-7.49 3.46-7.49 7.59 -0.15 4.14 3.07 7.62 7.21 7.77 4.14 0.15 7.62-3.07 7.77-7.21 0.01-0.19 0.01-0.37 0-0.56H67.71z"/>
      <path d="M72.3 44.53l14.09 14.77V45.43h2.34v19.55L74.64 50.21v13.98h-2.34V44.53z"/>
    </g>
    <g id="THE">
      <path d="M-8.73 43.09h-0.6v-5.58h-0.68v-0.56h0.68v-2.19h0.6v2.19h1.08v0.56h-1.07V43.09z"/>
      <path d="M-6.24 32.12v5.78h0.03c0.35-0.68 1.06-1.1 1.82-1.09 1.58 0 2.02 0.98 2.02 2.57v3.71h-0.6v-3.71c0-1.1-0.13-2.01-1.48-2.01 -1.54 0-1.79 1.43-1.79 2.68v3.03h-0.6V32.12H-6.24z"/>
      <path d="M-1.07 40.07c-0.11 1.32 0.87 2.48 2.19 2.59 0.08 0.01 0.17 0.01 0.25 0.01 0.93-0.01 1.77-0.56 2.17-1.4l0.51 0.29c-0.51 1.03-1.57 1.68-2.73 1.66 -1.82 0-2.98-1.48-2.98-3.22s1.18-3.19 2.98-3.19c1.86 0 2.97 1.49 2.95 3.26H-1.07zM3.66 39.51c-0.12-1.31-1.28-2.27-2.59-2.14 -1.14 0.11-2.04 1.01-2.14 2.14H3.66z"/>
    </g>
    <g id="CIRCLE">
      <path d="M-31.66 32C-40.68 32-48 39.31-48 48.34l0 0c0 0.08 0 0.16 0 0.24h3.31v-5.19h4.66v5.19h2.26v3.53h-2.25v10.26c1.62 0.97 3.39 1.65 5.24 2.01V52.11h-1.75v-3.53h1.75v-0.8c0-4.37 3.68-4.77 5.93-4.77h0.67v3.49h-0.51c-0.74-0.05-1.38 0.5-1.43 1.23 -0.01 0.08 0 0.15 0 0.23v0.62h1.96v3.53h-1.96v12.5c1.62-0.15 3.2-0.54 4.7-1.16 -1.27-0.92-2.07-2.36-2.17-3.93h4.63c0.11 0.85 0.85 1.48 1.71 1.43 0.58-0.48 1.13-1 1.64-1.56 -0.23-0.89-1.43-1.11-4.08-2.14 -2.02-0.65-3.7-1.96-3.7-4.07 0-3.08 2.79-5.13 6.03-5.13 1.81 0 4.78 0.64 5.72 3.62 1.83-8.85-3.86-17.5-12.71-19.33C-29.45 32.12-30.56 32-31.66 32zM-21.43 51.78c-0.98 0-1.32 0.62-1.32 1.05 0 0.84 1.15 1.32 2.38 1.68 1.15 0.27 2.25 0.67 3.3 1.2 0.44-0.88 0.81-1.8 1.09-2.74h-3.99C-20 52.62-20.06 51.78-21.43 51.78zM-44.69 58.2v-6.09h-2.86C-47.03 54.32-46.06 56.4-44.69 58.2z"/>
    </g>
  </g>
</svg>